name C:\Users\u0101727\Documents\MyRepositories\upper-imu-dc\Results\main_tracking\Case_40\FLX01_angularVelocities_bodyFrame.mot
datacolumns 4
datarows 141
range 0.51000000 1.91000000
endheader 
time	radius_imu_x	radius_imu_y	radius_imu_z	
          0.51000000	         -0.12190379	         -1.27073974	          0.02837036	
          0.52000000	         -0.15395382	         -1.33394667	         -0.04933091	
          0.53000000	         -0.17337276	         -1.40323261	         -0.09376965	
          0.54000000	         -0.18264129	         -1.47300374	         -0.11449840	
          0.55000000	         -0.18414000	         -1.45961851	         -0.12465375	
          0.56000000	         -0.18192413	         -1.35499812	         -0.13179637	
          0.57000000	         -0.18249487	         -1.34472737	         -0.12479044	
          0.58000000	         -0.18460291	         -1.18291531	         -0.12673995	
          0.59000000	         -0.19013525	         -1.00836280	         -0.13248292	
          0.60000000	         -0.20290201	         -0.98833870	         -0.12934204	
          0.61000000	         -0.21435355	         -0.86934739	         -0.14333958	
          0.62000000	         -0.22340207	         -0.65593431	         -0.17379430	
          0.63000000	         -0.23664973	         -0.55339800	         -0.20458187	
          0.64000000	         -0.25964015	         -0.62537324	         -0.23064129	
          0.65000000	         -0.29216489	         -0.86588039	         -0.25238385	
          0.66000000	         -0.33036337	         -1.16728407	         -0.27936583	
          0.67000000	         -0.36777225	         -1.42418243	         -0.32075959	
          0.68000000	         -0.40275860	         -1.70580264	         -0.36992496	
          0.69000000	         -0.43456955	         -2.02546877	         -0.42437750	
          0.70000000	         -0.46288562	         -2.38194090	         -0.48281836	
          0.71000000	         -0.48789850	         -2.76610528	         -0.54444947	
          0.72000000	         -0.51056104	         -3.16300329	         -0.60872808	
          0.73000000	         -0.53250415	         -3.55322707	         -0.67532093	
          0.74000000	         -0.55570862	         -3.91608983	         -0.74401550	
          0.75000000	         -0.58207264	         -4.23305788	         -0.81463870	
          0.76000000	         -0.61302002	         -4.49028981	         -0.88703062	
          0.77000000	         -0.64925261	         -4.68001289	         -0.96106322	
          0.78000000	         -0.69069929	         -4.80081683	         -1.03666736	
          0.79000000	         -0.73665285	         -4.85683812	         -1.11385599	
          0.80000000	         -0.78602211	         -4.85601555	         -1.19274734	
          0.81000000	         -0.83758788	         -4.80803148	         -1.27357563	
          0.82000000	         -0.89016444	         -4.72263655	         -1.35665511	
          0.83000000	         -0.94261951	         -4.60869479	         -1.44227847	
          0.84000000	         -0.99378613	         -4.47385818	         -1.53056347	
          0.85000000	         -1.04224973	         -4.32448331	         -1.62133491	
          0.86000000	         -1.08640555	         -4.16601321	         -1.71396569	
          0.87000000	         -1.12332851	         -4.00180415	         -1.80778403	
          0.88000000	         -1.15447684	         -3.84490189	         -1.90119723	
          0.89000000	         -1.18218359	         -3.70861501	         -1.99321640	
          0.90000000	         -1.20552505	         -3.59769977	         -2.08303742	
          0.91000000	         -1.22382649	         -3.51880849	         -2.16943600	
          0.92000000	         -1.23671109	         -3.48127024	         -2.25069369	
          0.93000000	         -1.24427139	         -3.49678036	         -2.32491631	
          0.94000000	         -1.24723787	         -3.57744756	         -2.39021744	
          0.95000000	         -1.24719379	         -3.73224418	         -2.44514497	
          0.96000000	         -1.24668089	         -3.96277768	         -2.48913302	
          0.97000000	         -1.24910794	         -4.25964746	         -2.52279570	
          0.98000000	         -1.25844259	         -4.60132028	         -2.54790300	
          0.99000000	         -1.27869480	         -4.95540768	         -2.56708303	
          1.00000000	         -1.31305454	         -5.28442528	         -2.58330517	
          1.01000000	         -1.36325274	         -5.55285586	         -2.59936204	
          1.02000000	         -1.42911995	         -5.73411638	         -2.61772140	
          1.03000000	         -1.50868202	         -5.81451587	         -2.64030359	
          1.04000000	         -1.59873348	         -5.79250299	         -2.66863743	
          1.05000000	         -1.69545960	         -5.67570013	         -2.70407427	
          1.06000000	         -1.79497884	         -5.47808373	         -2.74785324	
          1.07000000	         -1.89352749	         -5.21874166	         -2.80093226	
          1.08000000	         -1.98763559	         -4.92039256	         -2.86369714	
          1.09000000	         -2.07431664	         -4.60646785	         -2.93585996	
          1.10000000	         -2.15122569	         -4.29729410	         -3.01649513	
          1.11000000	         -2.21673240	         -4.00707033	         -3.10423500	
          1.12000000	         -2.26999492	         -3.74212163	         -3.19756075	
          1.13000000	         -2.31085222	         -3.50162562	         -3.29513004	
          1.14000000	         -2.33956259	         -3.28026692	         -3.39589677	
          1.15000000	         -2.35658985	         -3.07150613	         -3.49909676	
          1.16000000	         -2.36246035	         -2.87067800	         -3.60411710	
          1.17000000	         -2.35775278	         -2.67673147	         -3.71029742	
          1.18000000	         -2.34320284	         -2.49242228	         -3.81667908	
          1.19000000	         -2.31985933	         -2.32320263	         -3.92174488	
          1.20000000	         -2.28925054	         -2.17499879	         -4.02324667	
          1.21000000	         -2.25344899	         -2.05138807	         -4.11821336	
          1.22000000	         -2.21486028	         -1.95171588	         -4.20309906	
          1.23000000	         -2.17594997	         -1.87035627	         -4.27392661	
          1.24000000	         -2.13904576	         -1.79634381	         -4.32655257	
          1.25000000	         -2.10541334	         -1.71843325	         -4.35659696	
          1.26000000	         -2.06572794	         -1.62049346	         -4.36022914	
          1.27000000	         -2.01304394	         -1.49501120	         -4.33318452	
          1.28000000	         -1.94920374	         -1.34073400	         -4.27205538	
          1.29000000	         -1.87537016	         -1.16038052	         -4.17511512	
          1.30000000	         -1.79275541	         -0.96062517	         -4.04174723	
          1.31000000	         -1.70314926	         -0.74962309	         -3.87216656	
          1.32000000	         -1.60944287	         -0.53518579	         -3.66727518	
          1.33000000	         -1.51601923	         -0.32345323	         -3.42870889	
          1.34000000	         -1.42893417	         -0.11756816	         -3.15906662	
          1.35000000	         -1.35571079	          0.08215419	         -2.86224687	
          1.36000000	         -1.30361038	          0.28265158	         -2.54347216	
          1.37000000	         -1.25227915	          0.51086669	         -2.21946148	
          1.38000000	         -1.22346034	          0.60096287	         -1.85839335	
          1.39000000	         -1.17083446	          0.63131258	         -1.49987902	
          1.40000000	         -1.14300879	          0.55434236	         -1.12189784	
          1.41000000	         -1.07382632	          0.42339826	         -0.77142786	
          1.42000000	         -1.00530523	          0.31994825	         -0.45126371	
          1.43000000	         -0.97066110	          0.26280623	         -0.19078239	
          1.44000000	         -0.99378938	          0.20102396	         -0.00759237	
          1.45000000	         -1.03928673	          0.17876767	          0.09297044	
          1.46000000	         -1.08706670	          0.19949927	          0.11318798	
          1.47000000	         -1.12834337	          0.27359891	          0.05959317	
          1.48000000	         -1.15973546	          0.40155194	         -0.05795095	
          1.49000000	         -1.18011449	          0.57696107	         -0.22752129	
          1.50000000	         -1.18867900	          0.78671767	         -0.43605346	
          1.51000000	         -1.18415705	          1.01219196	         -0.66996428	
          1.52000000	         -1.16485005	          1.22996428	         -0.91550979	
          1.53000000	         -1.12926849	          1.41289713	         -1.15905589	
          1.54000000	         -1.07699309	          1.53171202	         -1.38743553	
          1.55000000	         -1.00927342	          1.56073982	         -1.58870819	
          1.56000000	         -0.92903493	          1.47953654	         -1.75320883	
          1.57000000	         -0.83711403	          1.30829510	         -1.87659495	
          1.58000000	         -0.75608193	          1.08126123	         -1.96420325	
          1.59000000	         -0.67317243	          0.87873565	         -2.00187422	
          1.60000000	         -0.62121356	          0.58704710	         -2.00240092	
          1.61000000	         -0.57428833	          0.36749585	         -1.95521619	
          1.62000000	         -0.56372964	          0.21970516	         -1.87662836	
          1.63000000	         -0.58547097	          0.20720226	         -1.75558450	
          1.64000000	         -0.61246592	          0.28978159	         -1.58565277	
          1.65000000	         -0.67082444	          0.36820146	         -1.36838424	
          1.66000000	         -0.73073640	          0.45222678	         -1.08768742	
          1.67000000	         -0.79819434	          0.48545186	         -0.75202649	
          1.68000000	         -0.89412931	          0.50746558	         -0.37853863	
          1.69000000	         -0.98539908	          0.60334423	          0.03762257	
          1.70000000	         -1.11360250	          0.58107919	          0.45718757	
          1.71000000	         -1.24318932	          0.62959220	          0.87484185	
          1.72000000	         -1.43975304	          0.64557935	          1.22653107	
          1.73000000	         -1.59746989	          0.68567683	          1.57194768	
          1.74000000	         -1.74764633	          0.70332455	          1.87397787	
          1.75000000	         -1.88008174	          0.67283853	          2.13074277	
          1.76000000	         -1.98826070	          0.58780390	          2.34337373	
          1.77000000	         -2.06960423	          0.45324383	          2.51399041	
          1.78000000	         -2.12453578	          0.28158191	          2.64510588	
          1.79000000	         -2.15590095	          0.09079170	          2.73919176	
          1.80000000	         -2.16812632	         -0.09865064	          2.79846486	
          1.81000000	         -2.16620263	         -0.26781023	          2.82491552	
          1.82000000	         -2.15467675	         -0.40332213	          2.82051335	
          1.83000000	         -2.13693829	         -0.49989476	          2.78743100	
          1.84000000	         -2.11498891	         -0.56024182	          2.72814994	
          1.85000000	         -2.08967436	         -0.59244187	          2.64540560	
          1.86000000	         -2.06114866	         -0.60611635	          2.54203534	
          1.87000000	         -2.02928843	         -0.60934780	          2.42084136	
          1.88000000	         -1.99393807	         -0.60719844	          2.28452663	
          1.89000000	         -1.95504646	         -0.60133379	          2.13567322	
          1.90000000	         -1.91276471	         -0.59012497	          1.97671568	
          1.91000000	         -1.86749601	         -0.56925022	          1.80991270	
